<svg xmlns="http://www.w3.org/2000/svg" width="22" height="21" viewBox="0 0 22 21" fill="none">
<path d="M13.3516 10.6579L20.5182 3.50794C20.8321 3.1941 21.0084 2.76845 21.0084 2.32461C21.0084 1.88077 20.8321 1.45512 20.5182 1.14128C20.2044 0.827436 19.7787 0.651123 19.3349 0.651123C18.8911 0.651123 18.4654 0.827436 18.1516 1.14128L11.0016 8.30794L3.85158 1.14128C3.53774 0.827436 3.11208 0.651123 2.66824 0.651123C2.22441 0.651123 1.79875 0.827436 1.48491 1.14128C1.17107 1.45512 0.994757 1.88077 0.994757 2.32461C0.994757 2.76845 1.17107 3.1941 1.48491 3.50794L8.65158 10.6579L1.48491 17.8079C1.3287 17.9629 1.20471 18.1472 1.12009 18.3503C1.03548 18.5534 0.991913 18.7713 0.991913 18.9913C0.991913 19.2113 1.03548 19.4291 1.12009 19.6322C1.20471 19.8353 1.3287 20.0197 1.48491 20.1746C1.63985 20.3308 1.82418 20.4548 2.02728 20.5394C2.23038 20.624 2.44822 20.6676 2.66824 20.6676C2.88826 20.6676 3.10611 20.624 3.3092 20.5394C3.5123 20.4548 3.69664 20.3308 3.85158 20.1746L11.0016 13.0079L18.1516 20.1746C18.3065 20.3308 18.4909 20.4548 18.6939 20.5394C18.897 20.624 19.1149 20.6676 19.3349 20.6676C19.5549 20.6676 19.7728 20.624 19.9759 20.5394C20.179 20.4548 20.3633 20.3308 20.5182 20.1746C20.6745 20.0197 20.7984 19.8353 20.8831 19.6322C20.9677 19.4291 21.0112 19.2113 21.0112 18.9913C21.0112 18.7713 20.9677 18.5534 20.8831 18.3503C20.7984 18.1472 20.6745 17.9629 20.5182 17.8079L13.3516 10.6579Z" fill="#fff"/>
</svg>